<!DOCTYPE svg PUBLIC "-//W3C//DTD SVG 1.1//EN" "http://www.w3.org/Graphics/SVG/1.1/DTD/svg11.dtd">
<!-- Uploaded to: SVG Repo, www.svgrepo.com, Transformed by: SVG Repo Mixer Tools -->
<svg fill="#ffff" height="800px" width="800px" version="1.1" id="Capa_1" xmlns="http://www.w3.org/2000/svg" xmlns:xlink="http://www.w3.org/1999/xlink" viewBox="0 0 297 297" xml:space="preserve" stroke="#ffff">
<g id="SVGRepo_bgCarrier" stroke-width="0"/>
<g id="SVGRepo_tracerCarrier" stroke-linecap="round" stroke-linejoin="round"/>
<g id="SVGRepo_iconCarrier"> <g> <path d="M82.022,174.126h6.497v6.497c0,4.463,3.619,8.082,8.082,8.082c4.463,0,8.082-3.619,8.082-8.082v-6.497h6.497 c4.463,0,8.082-3.619,8.082-8.082s-3.619-8.082-8.082-8.082h-6.497v-6.496c0-4.463-3.619-8.082-8.082-8.082 c-4.463,0-8.082,3.619-8.082,8.082v6.496h-6.497c-4.463,0-8.082,3.619-8.082,8.082S77.559,174.126,82.022,174.126z"/> <path d="M249.704,112.762c-3.714-13.278-16.689-22.349-30.477-22.349h-10.903l-2.583-19.19 c-1.105-8.209-8.185-14.399-16.468-14.399H174.4c-8.283,0-15.363,6.19-16.467,14.399l-2.584,19.19H10.102 C4.523,90.413,0,94.936,0,100.515v138.398c0,5.579,4.523,10.102,10.102,10.102h7.235c0.766,19.207,16.623,34.6,36.015,34.6 s35.249-15.392,36.015-34.6h118.267c0.766,19.207,16.623,34.6,36.015,34.6c19.392,0,35.249-15.392,36.015-34.6h7.234 c5.579,0,10.102-4.523,10.102-10.102v-42.835c0-10.82-3.907-19.322-11-23.94c-5.324-3.466-17.605-7.8-25.127-10.284 C260.873,161.855,253.094,124.884,249.704,112.762z M276.796,196.078v32.733h-2.369c-6.339-10.366-17.764-17.3-30.779-17.3 c-13.015,0-24.439,6.934-30.779,17.3h-19.669v-48.995h57.549c9.618,3.038,21.196,7.282,24.226,9.255 C275.732,189.562,276.796,192.061,276.796,196.078z M230.262,118.275l9.384,41.337h-46.445v-48.995h26.026 C224.164,110.617,228.546,113.677,230.262,118.275z M177.537,77.028h8.599l1.802,13.385h-12.203L177.537,77.028z M20.204,110.617 h152.793v118.194H84.13c-6.339-10.366-17.764-17.3-30.779-17.3s-24.439,6.934-30.779,17.3h-2.369V110.617z M53.351,263.411 c-8.739,0-15.848-7.109-15.848-15.848c0-8.739,7.109-15.848,15.848-15.848s15.848,7.109,15.848,15.848 C69.199,256.302,62.09,263.411,53.351,263.411z M243.649,263.411c-8.739,0-15.848-7.109-15.848-15.848 c0-8.739,7.109-15.848,15.848-15.848c8.739,0,15.848,7.109,15.848,15.848C259.496,256.302,252.387,263.411,243.649,263.411z"/> <path d="M96.601,213.444c26.136,0,47.4-21.264,47.4-47.4s-21.264-47.399-47.4-47.399s-47.4,21.263-47.4,47.399 S70.465,213.444,96.601,213.444z M96.601,134.809c17.224,0,31.236,14.013,31.236,31.235c0,17.224-14.013,31.236-31.236,31.236 s-31.236-14.013-31.236-31.236C65.364,148.822,79.377,134.809,96.601,134.809z"/> <path d="M181.837,50.258c5.579,0,10.102-4.523,10.102-10.102V23.487c0-5.579-4.523-10.102-10.102-10.102 s-10.102,4.523-10.102,10.102v16.668C171.735,45.734,176.258,50.258,181.837,50.258z"/> <path d="M215.173,66.926h16.668c5.579,0,10.102-4.523,10.102-10.102s-4.523-10.102-10.102-10.102h-16.668 c-5.579,0-10.102,4.523-10.102,10.102S209.595,66.926,215.173,66.926z"/> <path d="M131.832,66.926H148.5c5.579,0,10.102-4.523,10.102-10.102s-4.523-10.102-10.102-10.102h-16.668 c-5.579,0-10.102,4.523-10.102,10.102S126.253,66.926,131.832,66.926z"/> </g> </g>
</svg>