<!DOCTYPE svg PUBLIC "-//W3C//DTD SVG 1.1//EN" "http://www.w3.org/Graphics/SVG/1.1/DTD/svg11.dtd">
<!-- Uploaded to: SVG Repo, www.svgrepo.com, Transformed by: SVG Repo Mixer Tools -->
<svg fill="#fff" version="1.1" id="Layer_1" xmlns="http://www.w3.org/2000/svg" xmlns:xlink="http://www.w3.org/1999/xlink" viewBox="0 0 490 490" xml:space="preserve" width="800px" height="800px" stroke="#fff">
<g id="SVGRepo_bgCarrier" stroke-width="0"/>
<g id="SVGRepo_tracerCarrier" stroke-linecap="round" stroke-linejoin="round"/>
<g id="SVGRepo_iconCarrier"> <g> <g> <g> <path d="M480,210h-85v-20h-15v-20h65c5.523,0,10-4.477,10-10V10c0-5.523-4.477-10-10-10H235c-5.523,0-10,4.477-10,10v150 c0,5.523,4.477,10,10,10h65v20h-15v20H175V90c0-5.522-4.477-10-10-10H45c-5.523,0-10,4.478-10,10v120H10c-5.523,0-10,4.477-10,10 v40c0,5.522,4.477,10,10,10h15v220h20v-45h165v45h20V270h185v220h20V270h15v220h20V270h10c5.523,0,10-4.478,10-10v-40 C490,214.477,485.523,210,480,210z M245,20h190v85H245V20z M245,150v-25h190v25H245z M360,170v20h-40v-20H360z M135,100h20v70 h-20V100z M135,190h20v20h-20V190z M95,100h20v110H95V100z M55,100h20v15H55V100z M55,135h20v75H55V135z M210,425H45v-65h165V425 z M210,340H45v-70h165V340z M470,250H20v-20h450V250z"/> <rect x="110" y="295" width="35" height="20"/> <rect x="110" y="385" width="35" height="20"/> </g> </g> </g> </g>
</svg>