<!DOCTYPE svg PUBLIC "-//W3C//DTD SVG 1.1//EN" "http://www.w3.org/Graphics/SVG/1.1/DTD/svg11.dtd">
<!-- Uploaded to: SVG Repo, www.svgrepo.com, Transformed by: SVG Repo Mixer Tools -->
<svg fill="#ffff" height="800px" width="800px" version="1.1" id="Layer_1" xmlns="http://www.w3.org/2000/svg" xmlns:xlink="http://www.w3.org/1999/xlink" viewBox="0 0 512.004 512.004" xml:space="preserve" stroke="#ffff">
<g id="SVGRepo_bgCarrier" stroke-width="0"/>
<g id="SVGRepo_tracerCarrier" stroke-linecap="round" stroke-linejoin="round"/>
<g id="SVGRepo_iconCarrier"> <g> <g> <g> <path d="M384.002,448.002c11.782,0,21.333-9.551,21.333-21.333v-42.667c0-11.782-9.551-21.333-21.333-21.333 c-11.782,0-21.333,9.551-21.333,21.333v42.667C362.669,438.451,372.22,448.002,384.002,448.002z"/> <path d="M512.004,256.002c0-11.782-9.551-21.333-21.333-21.333h-68.679l-10.667-42.667h58.01 c11.782,0,21.333-9.551,21.333-21.333V21.335c0-11.782-9.551-21.333-21.333-21.333H256.002c-11.782,0-21.333,9.551-21.333,21.333 v85.333H104.544c-34.429,0-60.425,31.168-54.27,65.041l11.445,62.959H21.333C9.551,234.669,0,244.22,0,256.002v64 c0,0.014,0.002,0.028,0.002,0.042v170.624c0,11.782,9.551,21.333,21.333,21.333c11.782,0,21.333-9.551,21.333-21.333V341.335 h38.51c5.768,24.862,27.967,42.667,53.722,42.667h14.434v64h-64c-11.782,0-21.333,9.551-21.333,21.333v21.333 c0,11.782,9.551,21.333,21.333,21.333c11.782,0,21.333-9.551,21.333-21.333h42.667c0,11.782,9.551,21.333,21.333,21.333 c11.782,0,21.333-9.551,21.333-21.333h42.667c0,11.782,9.551,21.333,21.333,21.333s21.333-9.551,21.333-21.333v-21.333 c0-11.782-9.551-21.333-21.333-21.333h-64v-64h14.43c25.755,0,47.954-17.804,53.722-42.667h38.515v149.333 c0,11.782,9.551,21.333,21.333,21.333h170.667c11.782,0,21.333-9.551,21.333-21.333V320.044c0-0.014,0.002-0.028,0.002-0.042 V256.002z M378.012,234.669h-30.687l10.667-42.667h9.354L378.012,234.669z M279.627,234.669l7.762-42.667h26.623l-10.667,42.667 H279.627z M448.002,42.669v106.667h-64h-42.667h-50.79c-2.191-9.4-6.803-17.966-13.21-24.914V42.669H448.002z M42.667,298.669 v-21.333h26.801l3.876,21.333H42.667z M206.432,341.335h-71.531c-6.035,0-11.212-4.32-12.29-10.256L92.253,164.08 c-1.397-7.69,4.487-14.745,12.291-14.745h132.245c2.17,0,4.182,0.56,5.94,1.512c0.347,0.276,0.703,0.542,1.07,0.798 c3.571,2.49,5.59,6.397,5.484,10.551c-0.001,0.037,0,0.073-0.001,0.11c-0.008,0.238-0.028,0.477-0.05,0.717 c-0.019,0.202-0.046,0.405-0.076,0.609c-0.022,0.153-0.038,0.306-0.066,0.459l-0.5,2.705c-0.037,0.202-0.063,0.402-0.094,0.604 l-15.424,84.787c0,0.001,0,0.002-0.001,0.003l-0.099,0.547l-14.251,78.338C217.644,337.015,212.466,341.335,206.432,341.335z M271.87,277.335h48.132h85.333h64.002v21.333H320.002h-52.008L271.87,277.335z M469.336,469.336h-128v-128h128V469.336z"/> </g> </g> </g> </g>
</svg>